<svg xmlns="http://www.w3.org/2000/svg" width="32" height="32" viewBox="0 0 32 32"><defs><linearGradient id="bodyGrad32" x1="0%" x2="100%" y1="0%" y2="100%"><stop offset="0%" style="stop-color:#667eea;stop-opacity:1"/><stop offset="100%" style="stop-color:#764ba2;stop-opacity:1"/></linearGradient><linearGradient id="topFace32" x1="0%" x2="100%" y1="0%" y2="100%"><stop offset="0%" style="stop-color:#fff;stop-opacity:.9"/><stop offset="100%" style="stop-color:#f1f5f9;stop-opacity:.7"/></linearGradient><linearGradient id="screenGrad32" x1="0%" x2="100%" y1="0%" y2="100%"><stop offset="0%" style="stop-color:#1e293b;stop-opacity:.95"/><stop offset="100%" style="stop-color:#0f172a;stop-opacity:.9"/></linearGradient><linearGradient id="aiGlow32" x1="0%" x2="100%" y1="0%" y2="100%"><stop offset="0%" style="stop-color:#10b981;stop-opacity:1"/><stop offset="100%" style="stop-color:#047857;stop-opacity:.8"/></linearGradient><filter id="dropShadow32" width="200%" height="200%" x="-50%" y="-50%"><feGaussianBlur in="SourceAlpha" stdDeviation="1"/><feOffset dx=".5" dy="1" result="offset"/><feComponentTransfer><feFuncA slope=".25" type="linear"/></feComponentTransfer><feMerge><feMergeNode/><feMergeNode in="SourceGraphic"/></feMerge></filter><filter id="glow32"><feGaussianBlur result="coloredBlur" stdDeviation=".8"/><feMerge><feMergeNode in="coloredBlur"/><feMergeNode in="SourceGraphic"/></feMerge></filter></defs><polygon fill="url(#bodyGrad32)" points="6 9 16 4 26 9 26 19 16 24 6 19" filter="url(#dropShadow32)"/><polygon fill="#94a3b8" points="6 9 6 19 11 22 11 12" opacity=".6"/><polygon fill="#cbd5e1" points="21 12 21 22 26 19 26 9" opacity=".8"/><polygon fill="url(#topFace32)" points="6 9 16 4 21 7 11 12"/><polygon fill="url(#screenGrad32)" stroke="#1e293b" stroke-width=".3" points="8 11 18 6 18 15 8 20"/><rect width="8" height=".8" x="9" y="9" fill="#64748b" opacity=".8" transform="skewY(-15)"/><rect width="6" height=".6" x="9" y="11" fill="#94a3b8" opacity=".7" transform="skewY(-15)"/><rect width="7" height=".6" x="9" y="12.5" fill="#94a3b8" opacity=".7" transform="skewY(-15)"/><circle cx="18" cy="7" r="1" fill="#ef4444" filter="url(#glow32)"/><circle cx="18.5" cy="6.5" r=".6" fill="#fca5a5" opacity=".8"/><g transform="translate(12, 22)"><polygon fill="url(#aiGlow32)" stroke="#047857" stroke-width=".2" points="0 0 3 1 6 0 6 3 3 4 0 3"/><polygon fill="#34d399" points="0 0 3 -1 6 0 3 1" opacity=".9"/><polygon fill="#059669" points="6 0 6 3 3 4 3 1" opacity=".8"/><circle cx="1.5" cy="1.5" r=".3" fill="#fff" opacity=".9"/><circle cx="4.5" cy="1.5" r=".3" fill="#fff" opacity=".9"/><circle cx="3" cy="2.5" r=".3" fill="#fff" opacity=".9"/></g><path fill="none" stroke="url(#aiGlow32)" stroke-linecap="round" stroke-width=".8" d="M13,17 Q15,14 17,11" opacity=".5"/><polygon fill="#fff" points="7 10 15 5 20 8 12 13" opacity=".15"/><line x1="6" x2="16" y1="9" y2="4" stroke="#fff" stroke-width=".3" opacity=".4"/><ellipse cx="16" cy="25" fill="#000" opacity=".06" rx="8" ry="2"/></svg>