<svg xmlns="http://www.w3.org/2000/svg" width="16" height="16" viewBox="0 0 16 16"><defs><linearGradient id="bodyGrad16" x1="0%" x2="100%" y1="0%" y2="100%"><stop offset="0%" style="stop-color:#667eea;stop-opacity:1"/><stop offset="100%" style="stop-color:#764ba2;stop-opacity:1"/></linearGradient><linearGradient id="topFace16" x1="0%" x2="100%" y1="0%" y2="100%"><stop offset="0%" style="stop-color:#fff;stop-opacity:.9"/><stop offset="100%" style="stop-color:#e2e8f0;stop-opacity:.7"/></linearGradient><linearGradient id="screenGrad16" x1="0%" x2="100%" y1="0%" y2="100%"><stop offset="0%" style="stop-color:#1e293b;stop-opacity:1"/><stop offset="100%" style="stop-color:#0f172a;stop-opacity:.9"/></linearGradient><filter id="dropShadow16" width="200%" height="200%" x="-50%" y="-50%"><feGaussianBlur in="SourceAlpha" stdDeviation=".5"/><feOffset dx=".3" dy=".5"/><feComponentTransfer><feFuncA slope=".2" type="linear"/></feComponentTransfer><feMerge><feMergeNode/><feMergeNode in="SourceGraphic"/></feMerge></filter></defs><polygon fill="url(#bodyGrad16)" points="3 4.5 8 2 13 4.5 13 9.5 8 12 3 9.5" filter="url(#dropShadow16)"/><polygon fill="#94a3b8" points="3 4.5 3 9.5 5.5 11 5.5 6" opacity=".6"/><polygon fill="#cbd5e1" points="10.5 6 10.5 11 13 9.5 13 4.5" opacity=".8"/><polygon fill="url(#topFace16)" points="3 4.5 8 2 10.5 3.5 5.5 6"/><polygon fill="url(#screenGrad16)" points="4 5.5 9 3 9 7.5 4 10"/><rect width="4" height=".5" x="4.5" y="4.5" fill="#64748b" opacity=".8" transform="skewY(-15)"/><rect width="3" height=".4" x="4.5" y="5.5" fill="#94a3b8" opacity=".7" transform="skewY(-15)"/><circle cx="9" cy="3.5" r=".6" fill="#ef4444"/><circle cx="9.2" cy="3.3" r=".3" fill="#fca5a5" opacity=".8"/><g transform="translate(6, 11)"><polygon fill="#10b981" points="0 0 1.5 .5 3 0 3 1.5 1.5 2 0 1.5"/><polygon fill="#34d399" points="0 0 1.5 -.5 3 0 1.5 .5"/><polygon fill="#059669" points="3 0 3 1.5 1.5 2 1.5 .5"/><circle cx="1.5" cy=".8" r=".2" fill="#fff" opacity=".9"/></g><polygon fill="#fff" points="3.5 5 7.5 2.5 10 4 6 6.5" opacity=".15"/><ellipse cx="8" cy="12.5" fill="#000" opacity=".05" rx="4" ry="1"/></svg>