<svg xmlns="http://www.w3.org/2000/svg" width="128" height="128" viewBox="0 0 128 128"><defs><linearGradient id="bodyGrad" x1="0%" x2="100%" y1="0%" y2="100%"><stop offset="0%" style="stop-color:#667eea;stop-opacity:1"/><stop offset="50%" style="stop-color:#764ba2;stop-opacity:1"/><stop offset="100%" style="stop-color:#4f46e5;stop-opacity:1"/></linearGradient><linearGradient id="topFace" x1="0%" x2="100%" y1="0%" y2="100%"><stop offset="0%" style="stop-color:#fff;stop-opacity:.9"/><stop offset="100%" style="stop-color:#f8fafc;stop-opacity:.7"/></linearGradient><linearGradient id="rightFace" x1="0%" x2="100%" y1="0%" y2="100%"><stop offset="0%" style="stop-color:#e2e8f0;stop-opacity:.8"/><stop offset="100%" style="stop-color:#cbd5e1;stop-opacity:.6"/></linearGradient><linearGradient id="leftFace" x1="0%" x2="100%" y1="0%" y2="100%"><stop offset="0%" style="stop-color:#94a3b8;stop-opacity:.7"/><stop offset="100%" style="stop-color:#64748b;stop-opacity:.5"/></linearGradient><linearGradient id="screenGrad" x1="0%" x2="100%" y1="0%" y2="100%"><stop offset="0%" style="stop-color:#1e293b;stop-opacity:.95"/><stop offset="100%" style="stop-color:#0f172a;stop-opacity:.9"/></linearGradient><linearGradient id="aiGlow" x1="0%" x2="100%" y1="0%" y2="100%"><stop offset="0%" style="stop-color:#10b981;stop-opacity:1"/><stop offset="50%" style="stop-color:#059669;stop-opacity:.8"/><stop offset="100%" style="stop-color:#047857;stop-opacity:.6"/></linearGradient><filter id="dropShadow" width="200%" height="200%" x="-50%" y="-50%"><feGaussianBlur in="SourceAlpha" stdDeviation="3"/><feOffset dx="2" dy="4" result="offset"/><feComponentTransfer><feFuncA slope=".3" type="linear"/></feComponentTransfer><feMerge><feMergeNode/><feMergeNode in="SourceGraphic"/></feMerge></filter><filter id="innerShadow" width="200%" height="200%" x="-50%" y="-50%"><feGaussianBlur in="SourceGraphic" result="blur" stdDeviation="2"/><feOffset dx="1" dy="2" in="blur"/></filter><filter id="glow" width="200%" height="200%" x="-50%" y="-50%"><feGaussianBlur result="coloredBlur" stdDeviation="2"/><feMerge><feMergeNode in="coloredBlur"/><feMergeNode in="SourceGraphic"/></feMerge></filter></defs><polygon fill="url(#bodyGrad)" points="24 36 64 16 104 36 104 76 64 96 24 76" filter="url(#dropShadow)" opacity=".9"/><polygon fill="url(#leftFace)" stroke="#475569" stroke-width=".5" points="24 36 24 76 44 86 44 46"/><polygon fill="url(#rightFace)" stroke="#475569" stroke-width=".5" points="84 46 84 86 104 76 104 36"/><polygon fill="url(#topFace)" stroke="#475569" stroke-width=".5" points="24 36 64 16 84 26 44 46"/><polygon fill="url(#screenGrad)" stroke="#1e293b" stroke-width="1" points="32 42 76 22 76 52 32 72"/><rect width="32" height="2" x="36" y="35" fill="#64748b" opacity=".8" transform="skewY(-15)"/><rect width="28" height="1.5" x="36" y="39" fill="#94a3b8" opacity=".7" transform="skewY(-15)"/><rect width="35" height="1.5" x="36" y="42" fill="#94a3b8" opacity=".7" transform="skewY(-15)"/><rect width="24" height="1.5" x="36" y="45" fill="#94a3b8" opacity=".7" transform="skewY(-15)"/><rect width="30" height="1.5" x="36" y="48" fill="#94a3b8" opacity=".7" transform="skewY(-15)"/><ellipse cx="74" cy="28" fill="#ef4444" filter="url(#glow)" rx="3" ry="2" transform="rotate(-15)"/><ellipse cx="75" cy="27" fill="#fca5a5" opacity=".8" rx="2" ry="1.5" transform="rotate(-15)"/><g transform="translate(48, 88)"><polygon fill="url(#aiGlow)" stroke="#047857" stroke-width=".5" points="0 0 12 4 24 0 24 12 12 16 0 12"/><polygon fill="#34d399" points="0 0 12 -4 24 0 12 4" opacity=".9"/><polygon fill="#059669" points="24 0 24 12 12 16 12 4" opacity=".8"/><circle cx="6" cy="6" r="1" fill="#fff" opacity=".9"/><circle cx="18" cy="6" r="1" fill="#fff" opacity=".9"/><circle cx="12" cy="10" r="1" fill="#fff" opacity=".9"/><line x1="6" x2="12" y1="6" y2="10" stroke="#fff" stroke-width=".5" opacity=".7"/><line x1="18" x2="12" y1="6" y2="10" stroke="#fff" stroke-width=".5" opacity=".7"/></g><g transform="translate(88, 45) rotate(10)"><polygon fill="#fff" stroke="#e2e8f0" stroke-width=".3" points="0 0 6 2 12 0 12 8 6 10 0 8" opacity=".9"/><rect width="8" height=".5" x="2" y="3" fill="#667eea" opacity=".8"/><rect width="6" height=".3" x="2" y="5" fill="#667eea" opacity=".6"/><rect width="7" height=".3" x="2" y="6.5" fill="#667eea" opacity=".6"/></g><path fill="none" stroke="url(#aiGlow)" stroke-linecap="round" stroke-width="2" d="M54,72 Q64,65 74,58" filter="url(#glow)" opacity=".7"/><path fill="none" stroke="url(#aiGlow)" stroke-linecap="round" stroke-width="1.5" d="M70,82 Q75,75 80,68" opacity=".5"/><polygon fill="#fff" points="26 38 62 18 82 28 46 48" opacity=".15"/><polygon fill="url(#topFace)" points="34 44 74 24 74 34 34 54" opacity=".1"/><line x1="24" x2="64" y1="36" y2="16" stroke="#fff" stroke-width=".8" opacity=".4"/><line x1="64" x2="104" y1="16" y2="36" stroke="#cbd5e1" stroke-width=".6" opacity=".6"/><ellipse cx="64" cy="98" fill="#000" opacity=".08" rx="35" ry="8"/></svg>