<svg xmlns="http://www.w3.org/2000/svg" width="48" height="48" viewBox="0 0 48 48"><defs><linearGradient id="bodyGrad48" x1="0%" x2="100%" y1="0%" y2="100%"><stop offset="0%" style="stop-color:#667eea;stop-opacity:1"/><stop offset="100%" style="stop-color:#764ba2;stop-opacity:1"/></linearGradient><linearGradient id="topFace48" x1="0%" x2="100%" y1="0%" y2="100%"><stop offset="0%" style="stop-color:#fff;stop-opacity:.9"/><stop offset="100%" style="stop-color:#f1f5f9;stop-opacity:.7"/></linearGradient><linearGradient id="rightFace48" x1="0%" x2="100%" y1="0%" y2="100%"><stop offset="0%" style="stop-color:#e2e8f0;stop-opacity:.8"/><stop offset="100%" style="stop-color:#cbd5e1;stop-opacity:.6"/></linearGradient><linearGradient id="screenGrad48" x1="0%" x2="100%" y1="0%" y2="100%"><stop offset="0%" style="stop-color:#1e293b;stop-opacity:.95"/><stop offset="100%" style="stop-color:#0f172a;stop-opacity:.9"/></linearGradient><linearGradient id="aiGlow48" x1="0%" x2="100%" y1="0%" y2="100%"><stop offset="0%" style="stop-color:#10b981;stop-opacity:1"/><stop offset="100%" style="stop-color:#047857;stop-opacity:.8"/></linearGradient><filter id="dropShadow48" width="200%" height="200%" x="-50%" y="-50%"><feGaussianBlur in="SourceAlpha" stdDeviation="1.5"/><feOffset dx="1" dy="2" result="offset"/><feComponentTransfer><feFuncA slope=".3" type="linear"/></feComponentTransfer><feMerge><feMergeNode/><feMergeNode in="SourceGraphic"/></feMerge></filter><filter id="glow48" width="140%" height="140%" x="-20%" y="-20%"><feGaussianBlur result="coloredBlur" stdDeviation="1"/><feMerge><feMergeNode in="coloredBlur"/><feMergeNode in="SourceGraphic"/></feMerge></filter></defs><polygon fill="url(#bodyGrad48)" points="9 14 24 6 39 14 39 28 24 36 9 28" filter="url(#dropShadow48)"/><polygon fill="#94a3b8" points="9 14 9 28 17 32 17 18" opacity=".7"/><polygon fill="url(#rightFace48)" points="31 18 31 32 39 28 39 14"/><polygon fill="url(#topFace48)" points="9 14 24 6 31 10 17 18"/><polygon fill="url(#screenGrad48)" stroke="#1e293b" stroke-width=".5" points="12 16 28 8 28 20 12 28"/><rect width="12" height="1" x="14" y="13" fill="#64748b" opacity=".8" transform="skewY(-15)"/><rect width="10" height=".8" x="14" y="15" fill="#94a3b8" opacity=".7" transform="skewY(-15)"/><rect width="13" height=".8" x="14" y="17" fill="#94a3b8" opacity=".7" transform="skewY(-15)"/><rect width="8" height=".8" x="14" y="19" fill="#94a3b8" opacity=".7" transform="skewY(-15)"/><ellipse cx="27" cy="10" fill="#ef4444" filter="url(#glow48)" rx="1.5" ry="1" transform="rotate(-15)"/><ellipse cx="27.5" cy="9.5" fill="#fca5a5" opacity=".8" rx="1" ry=".7" transform="rotate(-15)"/><g transform="translate(18, 33)"><polygon fill="url(#aiGlow48)" stroke="#047857" stroke-width=".3" points="0 0 5 1.5 10 0 10 5 5 6.5 0 5"/><polygon fill="#34d399" points="0 0 5 -1.5 10 0 5 1.5" opacity=".9"/><polygon fill="#059669" points="10 0 10 5 5 6.5 5 1.5" opacity=".8"/><circle cx="2.5" cy="2.5" r=".5" fill="#fff" opacity=".9"/><circle cx="7.5" cy="2.5" r=".5" fill="#fff" opacity=".9"/><circle cx="5" cy="4" r=".5" fill="#fff" opacity=".9"/><line x1="2.5" x2="5" y1="2.5" y2="4" stroke="#fff" stroke-width=".3" opacity=".7"/><line x1="7.5" x2="5" y1="2.5" y2="4" stroke="#fff" stroke-width=".3" opacity=".7"/></g><path fill="none" stroke="url(#aiGlow48)" stroke-linecap="round" stroke-width="1.2" d="M20,26 Q24,22 28,18" filter="url(#glow48)" opacity=".6"/><polygon fill="#fff" points="10 15 23 7 30 11 18 19" opacity=".15"/><line x1="9" x2="24" y1="14" y2="6" stroke="#fff" stroke-width=".5" opacity=".4"/><ellipse cx="24" cy="37" fill="#000" opacity=".08" rx="12" ry="3"/></svg>